<svg xmlns="http://www.w3.org/2000/svg" version="1.1" xmlns:xlink="http://www.w3.org/1999/xlink" xmlns:svgjs="http://svgjs.dev/svgjs" width="1000" height="1125" viewBox="0 0 1000 1125"><g transform="matrix(1,0,0,1,0,0)"><svg viewBox="0 0 320 360" data-background-color="#242939" preserveAspectRatio="xMidYMid meet" height="1125" width="1000" xmlns="http://www.w3.org/2000/svg" xmlns:xlink="http://www.w3.org/1999/xlink"><g id="tight-bounds" transform="matrix(1,0,0,1,0,0)"><svg viewBox="0 0 320 360" height="360" width="320"><g><svg></svg></g><g><svg viewBox="0 0 320 360" height="360" width="320"><g><path d="M219.58 41.008c0.707 0 6.365 2.829 9.547 3.89-1.061 0.354-3.536-0.707-6.365-1.768 0.707 0 2.122 0.354 3.536 1.06-0.707-0.707-6.011-2.475-6.718-3.182M166.895 30.047c1.061-0.354 13.436 1.414 19.094 1.768 0.354-0.354-0.707-0.354-2.122-0.707 1.768-0.354 5.304 0.707 7.779 1.06-7.425 0.354-15.558-1.768-22.629-1.06-2.475 0-0.707-0.707-2.122-1.061M156.641 30.047c6.365 0 11.315 0 2.121 0.707-1.061-0.354-2.475-0.354-2.121-0.707M256.707 59.395c0.707 0 3.536 3.182 4.95 4.243-0.354 0.354-3.182-2.475-4.596-3.536 0.354 0.354 0 0-0.354-0.707M249.635 54.798c-2.829-2.475-3.889-2.475-4.243-3.889 2.475 1.414 4.243 2.829 4.243 3.889M204.022 32.522c0.354-0.354 1.061 0.354 2.829 0.707-2.122-0.354-1.768 0-1.061 0.707-2.475-0.354-3.182-0.707-2.475-1.414 1.414 0.707 1.768 0.354 0.707 0M103.602 36.765c0-0.354 1.414-1.061 2.475-1.414-1.061 0.707-0.707 1.061 1.061 0.353 0 0.354-2.122 1.061-3.536 1.768 0.707-0.354 1.414-1.414 0-0.707M211.094 28.986c-1.061 0.354-4.95-1.768-8.84-2.475-2.122-0.707 8.486 1.768 8.84 2.475M2.475 203.66c2.122 8.84 0.707 8.486 0 0M2.829 150.621c0.354-1.414 0.707-5.304 1.06-4.95-1.061 8.486-2.829 12.376-3.182 18.74 1.061-5.657-0.354 3.182-0.707 5.304 0.354 2.829 0.354-1.768 1.061-1.06 0.707 1.061-1.414 15.912-0.707 7.779-0.707 7.425 0 15.558 1.414 17.679-1.768 11.315 7.072 36.773 8.84 42.077 0.354 0.354 0-1.768 0.707-0.353 0.707 4.597 3.889 7.779 4.95 12.729 1.061 1.414 5.304 9.193 6.011 10.962 1.414 2.829 2.122 2.475 3.536 5.303 4.243 8.133 10.961 15.912 17.326 23.337 20.508 24.044 51.978 43.845 86.984 50.918 35.006 7.425 71.779 2.122 100.419-11.669 1.768-1.061 1.414-1.414 3.536-2.122 9.901-3.182 21.923-13.436 28.641-17.326 3.182-3.536 11.669-9.547 12.73-13.082 6.011-4.95 12.022-13.083 15.204-18.387 1.768-2.829 3.182-2.829 3.889-4.597-0.354 0 5.657-7.425 7.426-11.668-0.707 0-1.768 2.122-1.768 0 12.729-24.398 19.801-57.282 15.911-79.912 0.707 27.934-6.365 59.05-19.801 78.851-6.011 12.729-18.387 26.519-29.701 36.42-1.768 1.768-3.536 3.889-5.658 5.304-6.718 5.657-14.144 10.254-21.922 14.497-18.387 10.254-38.895 19.094-62.94 19.447 41.37-3.536 78.497-24.398 99.006-49.856-15.558 15.204-22.276 21.215-39.602 30.055-1.414 2.475-13.083 7.425-20.862 9.547 4.597-2.122 14.144-5.657 17.326-8.486-25.812 12.376-54.453 19.448-81.326 15.558 10.254 0 24.751 0.354 38.541-2.121 2.122-0.707 3.182-1.414 5.658-1.768 26.873-6.011 52.685-19.094 71.072-37.481-10.608 9.547-26.519 20.862-36.774 24.398 9.547-5.304 26.873-15.558 32.53-23.337-11.315 11.315-32.53 22.63-45.966 27.58-2.122 0.354 1.414-1.414-2.122 0-4.243 1.061-2.475 1.061-3.536 1.768-16.265 4.597-35.006 8.486-50.563 7.072-2.829-0.354-3.889-1.061-6.365-1.061-2.829-0.354-5.304-0.354-8.486-0.354-12.376-1.414-25.812-6.365-35.713-10.607-5.304-2.475-10.608-4.243-15.912-7.426-4.243-2.475-7.779-5.304-11.314-8.132-13.436-9.901-24.751-19.801-35.36-33.945-19.094-26.519-28.994-59.757-27.58-92.641 1.414-32.884 14.497-65.061 35.359-88.752-1.061 1.061 1.414-2.475 3.536-4.596 0 0.707-0.354 1.768 2.122-0.707 2.122-2.475-0.707-0.707 0.353-2.122 21.923-24.044 60.111-43.492 99.36-44.199 1.414-1.061 3.889-2.475 6.718-1.768 0 0.354-1.768 0.354-1.768 0.354 3.889-0.354 7.425-0.354 9.193 0.353 0.354-0.354-1.414-0.707 0-0.707 2.475 0.707 3.182 0 4.597 0.707-1.061 0-2.122 0-2.829 0.354 8.84 0 14.497 2.122 23.337 2.829-4.597-1.061-5.657-1.061-9.193-2.122 3.889 0.707 5.657 1.414 7.425 1.061-0.707 0-0.354-1.061 0.354-0.707 7.072 1.768 7.779 2.475 15.204 4.95 0.707-0.707-3.182-1.061-4.243-2.122 7.072 2.475 13.436 4.243 17.68 7.072-1.414-1.061-5.657-2.475-8.84-3.889-0.354 0.354 1.061 0.707 1.414 1.414-3.536-1.768-8.486-3.536-13.436-4.243 4.243 1.061 7.072 2.475 8.84 3.182-3.889-0.707-8.84-3.182-14.498-4.243 9.193 2.829 26.519 9.193 37.127 14.851-3.889-2.475-8.486-4.243-10.961-5.657 2.122 0.354 4.597 1.768 4.597 1.06 2.475 1.061 5.657 3.536 7.425 3.89-3.182-2.122-9.547-5.304-11.668-6.365 26.519 12.022 50.21 32.177 65.414 57.989 1.414 2.475 3.536 8.133 5.304 8.84-0.354-1.768-1.768-2.829-3.182-5.657 0.707 0 0.707-1.061 0-2.122-1.414-1.768 0 1.414-1.415-0.354-6.365-11.669-14.144-21.923-26.165-33.237 6.718 6.365 1.768 1.768 0.353-0.354 9.193 8.133 19.801 21.923 24.398 28.995-0.707-1.061-1.061-1.768-0.707-1.768 8.486 14.497 13.79 27.58 19.094 46.32 0.354 0.354 0-1.414 0.707-0.353 3.536 14.851 4.597 27.227 4.243 38.541 2.829-19.094-3.536-48.796-14.851-72.133-1.414-2.829-1.414-0.707-2.829-3.889 0-1.061-1.061-3.182-1.768-4.597-14.144-23.337-31.47-39.956-51.978-53.038 1.414 0.707 4.243 2.829 4.244 2.475-38.188-25.105-82.387-28.641-118.807-20.862-2.475 1.061-3.536 2.122-6.365 3.536 5.304-1.768 8.486-2.122 13.437-3.183 1.061-1.061-4.597 0.354-2.122-0.707 0.354 0.354 4.95-0.707 6.011-0.353 0 0.354-1.414 0.707-1.768 1.06 11.669-2.475 23.691-2.829 33.945-2.121-6.011 0.354-16.972-0.707-20.508 1.061 3.536-0.354 8.486-0.707 11.668-0.354-4.243 0-12.022 0.354-15.558 0.707-0.354-0.354 5.657-1.061 1.768-1.06-1.768 0.354-4.597 0.354-5.657 1.414-30.409 2.829-60.111 18.74-80.973 37.481-4.243 3.536-9.193 7.425-12.375 11.314-7.779 8.84-12.729 17.68-18.387 25.459 3.536-7.425 11.315-18.74 20.508-28.287 9.193-9.547 19.094-17.68 24.398-21.923 0 1.414 8.486-5.304 11.669-7.425-2.122 1.768 1.414-0.707 2.121-0.354 11.315-6.718 20.508-9.193 30.763-13.083-2.475 0.707-4.597 1.414-4.951 1.061 2.475-0.707 3.889-1.414 3.536-1.768-9.901 2.829-25.459 9.547-37.834 16.972 22.276-15.204 50.564-24.398 78.497-24.751 27.934-0.707 55.16 6.365 76.729 17.68 14.497 6.365 28.287 18.033 39.249 29.348 3.182 2.829 0.707-0.707 5.304 4.243-1.414-0.707-2.475-1.414-0.707 0.707 2.829 3.182-0.707-2.475 3.889 3.182-0.354 0-1.768-1.768-1.768-1.061 12.376 10.961 21.923 30.762 27.58 43.846-1.414-5.304-4.95-12.729-7.779-18.033 8.486 15.558 11.315 24.751 14.851 38.541 1.414 1.061-0.707-4.95 0.707-2.121 0.354 2.122 0.707 8.84 2.122 9.9-1.061-6.718-2.829-14.851-4.243-16.265 1.061 0.707-1.768-8.133-3.536-10.254-0.707-5.657-5.657-15.558-9.901-22.984-15.204-29.702-42.431-54.099-72.839-67.536 0-0.707-1.768-1.414-2.476-2.121-30.055-12.729-66.122-16.265-100.773-8.133-35.006 8.486-67.889 28.641-91.227 57.636 1.061-3.536 9.901-10.254 10.255-13.083-10.254 10.961-21.215 25.459-28.641 41.016-7.779 15.558-12.022 31.47-13.79 43.138" fill="#f5e5b1" fill-rule="nonzero" stroke="none" stroke-width="1" stroke-linecap="butt" stroke-linejoin="miter" stroke-miterlimit="10" stroke-dasharray="" stroke-dashoffset="0" font-family="none" font-weight="none" font-size="none" text-anchor="none" style="mix-blend-mode: normal" data-fill-palette-color="tertiary"></path></g><g transform="matrix(1,0,0,1,48,114.71196117613475)"><svg viewBox="0 0 224 130.5760776477305" height="130.5760776477305" width="224"><g><svg viewBox="0 0 224 130.5760776477305" height="130.5760776477305" width="224"><g><svg viewBox="0 0 224 130.5760776477305" height="130.5760776477305" width="224"><g id="textblocktransform"><svg viewBox="0 0 224 130.5760776477305" height="130.5760776477305" width="224" id="textblock"><g><svg viewBox="0 0 224 130.5760776477305" height="130.5760776477305" width="224"><g transform="matrix(1,0,0,1,0,0)"><svg width="224" viewBox="83.93 -34.15 175.15000000000003 97.35000000000001" height="130.5760776477305" data-palette-color="#f5e5b1"><svg></svg><svg></svg><g class="undefined-text-0" data-fill-palette-color="primary" id="text-0"><path d="M87.03-1.7c-1.3-0.6-2.333-1.483-3.1-2.65v0c0.633-0.8 1.4-1.2 2.3-1.2v0c0.433 0 0.91 0.083 1.43 0.25 0.513 0.167 0.853 0.283 1.02 0.35v0c0.967 0.333 1.983 0.5 3.05 0.5v0c1.7 0 3.293-0.4 4.78-1.2 1.48-0.8 2.587-1.883 3.32-3.25v0c1.9-3.533 2.85-7.667 2.85-12.4v0c0-2.167-0.2-4.7-0.6-7.6v0c-0.933 0.033-1.76 0.2-2.48 0.5-0.713 0.3-1.637 0.783-2.77 1.45v0c-0.767 0.433-1.583 0.65-2.45 0.65v0c-0.533 0-1.017-0.067-1.45-0.2v0c-0.367-0.1-0.74-0.277-1.12-0.53-0.387-0.247-0.647-0.52-0.78-0.82v0c-0.1-0.2-0.15-0.417-0.15-0.65v0c0-0.333 0.117-0.65 0.35-0.95 0.233-0.3 0.517-0.533 0.85-0.7v0c2.5-1.2 4.867-2.217 7.1-3.05v0c0.533-0.167 1.183-0.283 1.95-0.35v0c0.7-0.067 1.217-0.15 1.55-0.25v0c1-0.233 1.833-0.35 2.5-0.35v0c1.367 0 2.6 0.483 3.7 1.45v0 2.85c0.033 0.933 0.05 2.35 0.05 4.25v0 1.75l-0.05 1.4c-0.067 2.967-0.217 5.473-0.45 7.52-0.233 2.053-0.733 4.063-1.5 6.03v0c-0.867 2.167-2.023 3.917-3.47 5.25-1.453 1.333-3.297 2.217-5.53 2.65v0c-1.733 0.367-3.367 0.55-4.9 0.55v0c-2.133 0-4.133-0.417-6-1.25zM129.23-2.55c-0.3-0.133-0.6-0.2-0.9-0.2v0c-0.3 0-0.557 0.073-0.77 0.22-0.22 0.153-0.463 0.38-0.73 0.68v0c-0.4 0.4-0.817 0.733-1.25 1v0c-0.4 0.233-1.133 0.45-2.2 0.65v0c-0.467 0.067-0.85 0.1-1.15 0.1v0c-1.4 0-2.857-0.31-4.37-0.93-1.52-0.613-2.597-1.353-3.23-2.22v0c-0.667-0.933-0.983-1.933-0.95-3v0c0.033-1.6 0.7-3.2 2-4.8v0c1.267-1.533 2.427-2.617 3.48-3.25 1.047-0.633 2.487-1.033 4.32-1.2v0c0.4 0 0.977-0.067 1.73-0.2 0.747-0.133 1.12-0.317 1.12-0.55v0c0-0.467-0.207-0.893-0.62-1.28-0.42-0.38-1.263-0.57-2.53-0.57v0c-0.467 0-1.167 0.033-2.1 0.1v0c-0.933 0.067-1.583 0.1-1.95 0.1v0c-1.133 0-1.95-0.183-2.45-0.55v0c-0.133-0.067-0.2-0.383-0.2-0.95v0c0-1 0.35-1.633 1.05-1.9v0c1.433-0.533 2.917-0.817 4.45-0.85v0c1.933 0 3.727 0.423 5.38 1.27 1.647 0.853 2.853 1.913 3.62 3.18v0c0.767 1.267 1.267 3.017 1.5 5.25v0c0.267 2.5 0.4 5.683 0.4 9.55v0c0 1.067-0.15 1.683-0.45 1.85v0c-0.267 0.167-0.517 0.25-0.75 0.25v0c-0.3 0-0.573-0.09-0.82-0.27-0.253-0.187-0.53-0.447-0.83-0.78v0c-0.3-0.367-0.567-0.6-0.8-0.7zM121.33-3.15c1.567-0.467 3.1-1.217 4.6-2.25v0c0.333-0.233 0.633-0.533 0.9-0.9 0.267-0.367 0.433-0.6 0.5-0.7v0c0.067-0.1 0.127-0.393 0.18-0.88 0.047-0.48 0.053-0.87 0.02-1.17v0c-0.033-0.1-0.09-0.367-0.17-0.8-0.087-0.433-0.213-0.817-0.38-1.15v0c-0.167-0.267-0.433-0.517-0.8-0.75-0.367-0.233-0.7-0.333-1-0.3v0c-0.633 0.033-1.317 0.267-2.05 0.7-0.733 0.433-1.417 1.017-2.05 1.75v0c-0.633 0.767-1.123 1.54-1.47 2.32-0.353 0.787-0.53 1.513-0.53 2.18v0c0.067 0.9 0.317 1.5 0.75 1.8v0c0.233 0.167 0.517 0.25 0.85 0.25v0c0.267 0 0.483-0.033 0.65-0.1zM143.73-11.4c-0.733 0.667-1.1 1.333-1.1 2v0c0 0.533 0.283 1.283 0.85 2.25v0c0.333 0.067 0.583 0.1 0.75 0.1v0c0.8 0 1.5-0.25 2.1-0.75 0.6-0.5 1.283-1.217 2.05-2.15v0c-0.033 0.033 0.233-0.283 0.8-0.95v0c0.267-0.267 0.617-0.817 1.05-1.65v0c0.433-0.867 0.877-1.51 1.33-1.93 0.447-0.413 1.153-0.62 2.12-0.62v0c0.833 0 1.517 0.267 2.05 0.8 0.533 0.533 0.8 1.267 0.8 2.2v0c0 2.133-0.133 5.4-0.4 9.8v0c-0.033 0.633 0.043 1.107 0.23 1.42 0.18 0.32 0.553 0.48 1.12 0.48v0c1.667 0 3.033-0.1 4.1-0.3v0c0.467-0.1 0.833-0.15 1.1-0.15v0c0.6 0 1.01 0.207 1.23 0.62 0.213 0.42 0.32 1.147 0.32 2.18v0l-1.3 0.15c-0.4 0.033-1.1 0.117-2.1 0.25-1 0.133-1.917 0.233-2.75 0.3v0c-0.833 0.067-1.45 0.277-1.85 0.63-0.4 0.347-0.6 0.937-0.6 1.77v0c0 1.1-0.083 2.35-0.25 3.75v0l-0.2 2.7c-0.033 0.733-0.19 1.277-0.47 1.63-0.287 0.347-0.797 0.537-1.53 0.57v0c-1.633 0-2.5-0.717-2.6-2.15v0c-0.067-0.933-0.1-1.667-0.1-2.2v0c0-0.233 0.01-0.533 0.03-0.9 0.013-0.367 0.003-0.8-0.03-1.3v0c-0.067-1.133-0.383-1.7-0.95-1.7v0c-0.267 0-0.65 0.15-1.15 0.45v0c-0.233 0.167-0.583 0.383-1.05 0.65v0c-0.633 0.333-1.133 0.633-1.5 0.9v0c-0.433 0.333-0.983 0.5-1.65 0.5v0c-0.767 0-1.55-0.217-2.35-0.65-0.8-0.433-1.467-1.017-2-1.75v0c1.867-2.033 4.583-3.5 8.15-4.4v0c1.067-0.233 1.793-0.633 2.18-1.2 0.38-0.567 0.537-1.367 0.47-2.4v0c-0.133-1.433-0.283-2.1-0.45-2v0c-0.933 0.633-2.1 0.95-3.5 0.95v0c-1.367 0-2.9-0.283-4.6-0.85v0c-1.033-0.3-1.94-1.1-2.72-2.4-0.787-1.3-1.18-2.567-1.18-3.8v0c0-0.233 0.033-0.517 0.1-0.85v0c0.3-1.333 0.983-2.61 2.05-3.83 1.067-1.213 2.293-2.213 3.68-3 1.38-0.78 2.67-1.253 3.87-1.42v0c1.1-0.2 2.183-0.3 3.25-0.3v0c1.333 0 2.533 0.183 3.6 0.55v0c0.567 0.167 1.117 0.423 1.65 0.77 0.533 0.353 1.043 0.72 1.53 1.1 0.48 0.387 0.82 0.663 1.02 0.83v0c0.1 0.033 0.15 0.233 0.15 0.6v0c0 0.367-0.067 0.617-0.2 0.75v0c-0.2 0.167-0.44 0.307-0.72 0.42-0.287 0.12-0.563 0.18-0.83 0.18v0c-0.8 0-1.667-0.267-2.6-0.8v0c-0.767-0.533-1.633-0.8-2.6-0.8v0c-1.033 0-2.317 0.417-3.85 1.25v0c-0.533 0.267-1.133 0.683-1.8 1.25-0.667 0.567-1.283 1.117-1.85 1.65v0zM168.13-21c0.833 0.233 1.427 0.517 1.78 0.85 0.347 0.333 0.52 0.783 0.52 1.35v0c0 0.267-0.05 0.617-0.15 1.05v0c-0.367 1.5-0.567 3-0.6 4.5v0c-0.033 1.7 0.233 3.267 0.8 4.7v0c0.2 0.5 0.393 0.857 0.58 1.07 0.18 0.22 0.403 0.33 0.67 0.33v0c0.333 0 0.767-0.3 1.3-0.9v0c1.233-1.467 2.15-2.933 2.75-4.4 0.6-1.467 0.967-2.983 1.1-4.55v0c0.1-1.033 0.267-1.683 0.5-1.95v0c0.133-0.133 0.35-0.217 0.65-0.25 0.3-0.033 0.733-0.05 1.3-0.05v0c0.9 0.067 1.527 0.15 1.88 0.25 0.347 0.1 0.587 0.267 0.72 0.5 0.133 0.233 0.2 0.617 0.2 1.15v0l-0.05 2.35c0 0.5-0.017 1.233-0.05 2.2v0c-0.1 3-0.183 5.233-0.25 6.7v0c-0.033 1.167-0.383 2.633-1.05 4.4v0c-0.067 0.1-0.25 0.24-0.55 0.42-0.3 0.187-0.567 0.297-0.8 0.33v0c-0.067 0-0.207-0.11-0.42-0.33-0.22-0.213-0.38-0.403-0.48-0.57v0c-0.233-0.533-0.5-1.25-0.8-2.15v0l-0.4-0.95-0.1-0.3-0.15 0.15-0.8 0.5c-0.4 0.333-0.833 0.6-1.3 0.8v0c-0.767 0.467-1.683 0.7-2.75 0.7v0c-1.333 0-2.6-0.377-3.8-1.13-1.2-0.747-2.15-1.77-2.85-3.07v0c-1.133-2-1.7-4.317-1.7-6.95v0c0-1.333 0.183-3.017 0.55-5.05v0c0.067-0.5 0.383-0.933 0.95-1.3v0c0.5-0.367 1.083-0.55 1.75-0.55v0c0.333 0 0.683 0.05 1.05 0.15zM202.83-2.55c-0.3-0.133-0.6-0.2-0.9-0.2v0c-0.3 0-0.557 0.073-0.77 0.22-0.22 0.153-0.463 0.38-0.73 0.68v0c-0.4 0.4-0.817 0.733-1.25 1v0c-0.4 0.233-1.133 0.45-2.2 0.65v0c-0.467 0.067-0.85 0.1-1.15 0.1v0c-1.4 0-2.857-0.31-4.37-0.93-1.52-0.613-2.597-1.353-3.23-2.22v0c-0.667-0.933-0.983-1.933-0.95-3v0c0.033-1.6 0.7-3.2 2-4.8v0c1.267-1.533 2.427-2.617 3.48-3.25 1.047-0.633 2.487-1.033 4.32-1.2v0c0.4 0 0.977-0.067 1.73-0.2 0.747-0.133 1.12-0.317 1.12-0.55v0c0-0.467-0.207-0.893-0.62-1.28-0.42-0.38-1.263-0.57-2.53-0.57v0c-0.467 0-1.167 0.033-2.1 0.1v0c-0.933 0.067-1.583 0.1-1.95 0.1v0c-1.133 0-1.95-0.183-2.45-0.55v0c-0.133-0.067-0.2-0.383-0.2-0.95v0c0-1 0.35-1.633 1.05-1.9v0c1.433-0.533 2.917-0.817 4.45-0.85v0c1.933 0 3.727 0.423 5.38 1.27 1.647 0.853 2.853 1.913 3.62 3.18v0c0.767 1.267 1.267 3.017 1.5 5.25v0c0.267 2.5 0.4 5.683 0.4 9.55v0c0 1.067-0.15 1.683-0.45 1.85v0c-0.267 0.167-0.517 0.25-0.75 0.25v0c-0.3 0-0.573-0.09-0.82-0.27-0.253-0.187-0.53-0.447-0.83-0.78v0c-0.3-0.367-0.567-0.6-0.8-0.7zM194.93-3.15c1.567-0.467 3.1-1.217 4.6-2.25v0c0.333-0.233 0.633-0.533 0.9-0.9 0.267-0.367 0.433-0.6 0.5-0.7v0c0.067-0.1 0.127-0.393 0.18-0.88 0.047-0.48 0.053-0.87 0.02-1.17v0c-0.033-0.1-0.09-0.367-0.17-0.8-0.087-0.433-0.213-0.817-0.38-1.15v0c-0.167-0.267-0.433-0.517-0.8-0.75-0.367-0.233-0.7-0.333-1-0.3v0c-0.633 0.033-1.317 0.267-2.05 0.7-0.733 0.433-1.417 1.017-2.05 1.75v0c-0.633 0.767-1.123 1.54-1.47 2.32-0.353 0.787-0.53 1.513-0.53 2.18v0c0.067 0.9 0.317 1.5 0.75 1.8v0c0.233 0.167 0.517 0.25 0.85 0.25v0c0.267 0 0.483-0.033 0.65-0.1zM219.78-18.85c0 0.2-0.033 0.46-0.1 0.78-0.067 0.313-0.083 0.52-0.05 0.62v0c2.3-0.5 4.25-0.75 5.85-0.75v0c2.5 0 4.383 1.2 5.65 3.6v0c1.033 2.033 1.55 4.283 1.55 6.75v0c0 0.633-0.067 1.55-0.2 2.75v0c-0.1 0.8-0.417 1.44-0.95 1.92-0.533 0.487-1.167 0.73-1.9 0.73v0c-0.767 0-1.307-0.143-1.62-0.43-0.32-0.28-0.503-0.603-0.55-0.97-0.053-0.367-0.08-0.95-0.08-1.75v0l-0.05-1.05c-0.067-2-0.2-3.733-0.4-5.2v0c-0.1-0.6-0.323-1.027-0.67-1.28-0.353-0.247-0.813-0.37-1.38-0.37v0c-0.533 0-1.167 0.083-1.9 0.25v0c-1.133 0.3-1.89 0.533-2.27 0.7-0.387 0.167-0.947 0.517-1.68 1.05v0c-0.233 0.167-0.4 0.5-0.5 1-0.1 0.5-0.15 0.783-0.15 0.85v0c-0.433 2.133-0.9 4.683-1.4 7.65v0c-0.033 0.133-0.1 0.45-0.2 0.95-0.1 0.5-0.29 0.86-0.57 1.08-0.287 0.213-0.697 0.287-1.23 0.22v0c-2.1-0.267-3.167-1.15-3.2-2.65v0c-0.033-1.933 0.117-4.217 0.45-6.85v0c0.233-1.9 0.45-3.433 0.65-4.6v0c0.067-0.533 0.16-1.183 0.28-1.95 0.113-0.767 0.22-1.65 0.32-2.65v0c0.1-0.767 0.2-1.333 0.3-1.7 0.1-0.367 0.333-0.677 0.7-0.93 0.367-0.247 0.933-0.37 1.7-0.37v0c0.967 0 1.767 0.217 2.4 0.65 0.633 0.433 1.033 1.05 1.2 1.85v0zM237.63-33.95c-0.033 0.033-0.183 0.14-0.45 0.32-0.267 0.187-0.417 0.413-0.45 0.68v0c-0.3 2.7-0.567 5.75-0.8 9.15v0c-0.033 0.167 0.093 0.39 0.38 0.67 0.28 0.287 0.47 0.413 0.57 0.38v0c0.133-0.067 0.4-0.2 0.8-0.4 0.4-0.2 0.727-0.4 0.98-0.6 0.247-0.2 0.42-0.417 0.52-0.65v0c0.4-0.933 0.777-2 1.13-3.2 0.347-1.2 0.67-2.367 0.97-3.5v0c0.033-0.133 0.05-0.333 0.05-0.6v0c0-0.7-0.24-1.277-0.72-1.73-0.487-0.447-1.13-0.67-1.93-0.67v0c-0.333 0-0.683 0.05-1.05 0.15zM247.88 1.1c-2.8 0-4.583-1.2-5.35-3.6v0c0.267 0 0.627 0.007 1.08 0.02 0.447 0.02 0.82 0.063 1.12 0.13v0c0.467 0.067 0.8 0.1 1 0.1v0c1.5 0 2.75-0.667 3.75-2v0c0.7-0.967 1.05-1.95 1.05-2.95v0c0-0.667-0.167-1.317-0.5-1.95v0c-0.733-1.3-1.633-2.733-2.7-4.3v0c-0.7-1.033-1.333-2.017-1.9-2.95v0c-0.667-1.067-1-2.25-1-3.55v0c0-1.2 0.343-2.26 1.03-3.18 0.68-0.913 1.687-1.487 3.02-1.72v0l1.6-0.3c1.733-0.333 3.033-0.5 3.9-0.5v0c1.433 0 2.7 0.333 3.8 1v0c0.233 0.167 0.477 0.457 0.73 0.87 0.247 0.42 0.437 0.747 0.57 0.98v0c-0.233 0.1-0.557 0.257-0.97 0.47-0.42 0.22-0.78 0.347-1.08 0.38v0c-0.467 0.067-1.167 0.1-2.1 0.1v0c-0.9 0-1.583 0.017-2.05 0.05v0c-1.067 0.1-1.907 0.457-2.52 1.07-0.62 0.62-0.93 1.363-0.93 2.23v0c0 0.667 0.2 1.35 0.6 2.05v0c0.9 1.5 2.15 3.217 3.75 5.15v0c1.2 1.5 1.8 3.05 1.8 4.65v0c0 0.867-0.2 1.783-0.6 2.75v0c-1.367 3.333-3.733 5-7.1 5z" fill="#f5e5b1" fill-rule="nonzero" stroke="none" stroke-width="1" stroke-linecap="butt" stroke-linejoin="miter" stroke-miterlimit="10" stroke-dasharray="" stroke-dashoffset="0" font-family="none" font-weight="none" font-size="none" text-anchor="none" style="mix-blend-mode: normal" data-fill-palette-color="primary" opacity="1"></path><path d="M103.23 37.4c-0.633 0.233-1.15 0.35-1.55 0.35v0c-0.733 0-1.423-0.25-2.07-0.75-0.653-0.5-1.197-1.183-1.63-2.05v0l1.4-0.9c1.6-1.067 2.783-1.883 3.55-2.45v0c2.567-2 4.8-3.867 6.7-5.6v0c0.367-0.3 0.8-0.917 1.3-1.85v0l0.7-1.2-0.9-0.45c-0.1-0.033-0.323-0.127-0.67-0.28-0.353-0.147-0.647-0.237-0.88-0.27v0c-2.9-0.3-6.15-0.567-9.75-0.8v0c-1.133-0.1-1.867 0.517-2.2 1.85v0l-4.2 19.45c-0.233 1-0.417 1.873-0.55 2.62-0.133 0.753-0.25 1.38-0.35 1.88v0l-0.45 2.25c-0.133 0.533-0.35 0.957-0.65 1.27-0.3 0.32-0.733 0.497-1.3 0.53v0l-0.65 0.05c-0.633 0-1.073-0.15-1.32-0.45-0.253-0.3-0.363-0.833-0.33-1.6v0l0.1-2c0.2-3.933 0.45-6.883 0.75-8.85v0c0.2-1.433 0.493-3.017 0.88-4.75 0.38-1.733 0.637-2.867 0.77-3.4v0c0.467-1.933 0.8-3.4 1-4.4v0l-2.6-0.45c-0.4-0.867-0.6-1.617-0.6-2.25v0c0-1.067 0.5-2.15 1.5-3.25v0c0.7-0.8 1.533-1.45 2.5-1.95 0.967-0.5 1.967-0.833 3-1v0c1.5-0.167 2.833-0.25 4-0.25v0c4.567 0 9.2 0.967 13.9 2.9v0c0.567 0.233 1.133 0.59 1.7 1.07 0.567 0.487 0.933 0.797 1.1 0.93v0c1.3 1.1 1.95 2.25 1.95 3.45v0c0 0.8-0.25 1.683-0.75 2.65v0c-0.267 0.567-0.717 1.217-1.35 1.95v0c-3.1 3.4-7.117 6.067-12.05 8zM122.08 47.7c-1.033 0.633-2.217 0.95-3.55 0.95v0c-1.467 0-2.873-0.377-4.22-1.13-1.353-0.747-2.43-1.82-3.23-3.22-0.8-1.4-1.133-3-1-4.8v0l0.25-1.2c0.2-1.2 0.367-2.083 0.5-2.65v0c0.3-1.233 0.9-2.1 1.8-2.6 0.9-0.5 2.1-0.9 3.6-1.2v0c0.967-0.2 1.917-0.3 2.85-0.3v0c2.933 0 5.4 0.983 7.4 2.95v0c1.067 1.067 1.6 2.367 1.6 3.9v0c0 1.5-0.55 3.117-1.65 4.85v0c-1.267 1.967-2.717 3.45-4.35 4.45zM117.88 34.1c-0.533 1.3-1.1 2.917-1.7 4.85v0l-0.5 1.5 0.35 0.15c0 0.233 0.01 0.59 0.03 1.07 0.013 0.487 0.07 0.897 0.17 1.23v0c0.367 1.033 0.783 1.667 1.25 1.9v0c0.2 0.1 0.49 0.05 0.87-0.15 0.387-0.2 0.73-0.433 1.03-0.7v0c0.467-0.4 1.217-1.233 2.25-2.5v0c0.767-0.867 1.15-1.9 1.15-3.1v0c0-1.033-0.29-1.967-0.87-2.8-0.587-0.833-1.397-1.4-2.43-1.7v0c-0.1-0.033-0.283-0.05-0.55-0.05v0c-0.633 0-0.983 0.1-1.05 0.3zM138.58 29.85c0.1 0.333 0.117 0.85 0.05 1.55v0l-0.6 5.9c0.167-0.133 0.417-0.61 0.75-1.43 0.333-0.813 0.65-1.48 0.95-2 0.3-0.513 0.533-0.853 0.7-1.02v0c1.567-1.5 3.333-2.4 5.3-2.7 1.967-0.3 4.133-0.433 6.5-0.4v0c0.233 0 0.493 0.09 0.78 0.27 0.28 0.187 0.42 0.337 0.42 0.45 0 0.12-0.1 0.303-0.3 0.55-0.2 0.253-0.383 0.413-0.55 0.48v0c-2 0.667-3.757 1.433-5.27 2.3-1.52 0.867-2.83 2-3.93 3.4v0c-2.6 3.3-4.1 6.7-4.5 10.2v0c-0.1 0.933-0.383 1.557-0.85 1.87-0.467 0.32-1.117 0.48-1.95 0.48v0c-0.933 0-1.767-0.4-2.5-1.2-0.733-0.8-1.1-1.683-1.1-2.65v0c0.033-3.533 0.05-8.833 0.05-15.9v0c0-0.967 0.217-1.643 0.65-2.03 0.433-0.38 1.217-0.57 2.35-0.57v0c0.833 0 1.54 0.233 2.12 0.7 0.587 0.467 0.897 1.05 0.93 1.75zM154.68 32.4c-0.233-0.267-0.393-0.55-0.48-0.85-0.08-0.3-0.153-0.717-0.22-1.25v0c0.3-0.7 0.85-1.05 1.65-1.05v0c0.4 0.067 0.683 0.1 0.85 0.1v0c0.667 0 1.083-0.2 1.25-0.6 0.167-0.4 0.25-0.867 0.25-1.4 0-0.533 0-0.95 0-1.25v0l0.15-3c0.033-0.667 0.077-1.493 0.13-2.48 0.047-0.98 0.103-2.12 0.17-3.42v0c0.033-0.7 0.207-1.217 0.52-1.55 0.32-0.333 0.763-0.5 1.33-0.5v0c0.4 0 0.717 0.033 0.95 0.1v0c1.367 0.3 2.283 0.733 2.75 1.3 0.467 0.567 0.783 1.417 0.95 2.55v0c0.033 0.233 0 0.717-0.1 1.45v0l-0.9 7.8c-0.033 0.2-0.083 0.44-0.15 0.72-0.067 0.287-0.1 0.497-0.1 0.63v0c0 0.3 0.167 0.5 0.5 0.6 0.333 0.1 0.95 0.133 1.85 0.1v0c1.533-0.333 2.7-0.55 3.5-0.65v0c0.167-0.033 0.433-0.05 0.8-0.05v0c0.4 0 0.667 0.05 0.8 0.15v0c0.133 0.067 0.243 0.257 0.33 0.57 0.08 0.32 0.12 0.68 0.12 1.08v0c0 0.367-0.04 0.7-0.12 1-0.087 0.3-0.197 0.467-0.33 0.5v0c-0.9 0.267-1.967 0.483-3.2 0.65v0c-1.467 0.267-2.55 0.5-3.25 0.7v0c-0.367 0.1-0.733 0.35-1.1 0.75-0.367 0.4-0.567 0.767-0.6 1.1v0c-0.067 1.633-0.117 3.3-0.15 5v0c-0.033 1.3 0.017 2.6 0.15 3.9v0c0.1 1.1 0.317 1.89 0.65 2.37 0.333 0.487 0.833 0.73 1.5 0.73v0c0.533 0 1.3-0.183 2.3-0.55v0c0.533-0.233 1-0.35 1.4-0.35v0c0.633 0 1.083 0.35 1.35 1.05v0c0.1 0.233 0.15 0.467 0.15 0.7v0c0 0.433-0.16 0.783-0.48 1.05-0.313 0.267-0.737 0.5-1.27 0.7v0c-1 0.367-2.017 0.567-3.05 0.6v0c-1.4 0-2.717-0.343-3.95-1.03-1.233-0.68-2.21-1.637-2.93-2.87-0.713-1.233-1.02-2.65-0.92-4.25v0c0.033-0.633 0.05-1.633 0.05-3v0c0-2.167-0.083-4.367-0.25-6.6v0c-0.033-0.2-0.15-0.34-0.35-0.42-0.2-0.087-0.533-0.18-1-0.28v0c-0.767-0.133-1.267-0.317-1.5-0.55zM183.03 35.35c0 1.2 0.06 1.983 0.18 2.35 0.113 0.367 0.403 0.55 0.87 0.55v0c0.433 0 1.117-0.1 2.05-0.3v0h1.15c1.9 0 3.067 0.417 3.5 1.25v0c0.167 0.067 0.333 0.24 0.5 0.52 0.167 0.287 0.283 0.48 0.35 0.58v0c-0.133 0.1-0.333 0.257-0.6 0.47-0.267 0.22-0.517 0.347-0.75 0.38v0c-0.767 0.167-1.917 0.383-3.45 0.65v0c-0.3 0.033-0.833 0.117-1.6 0.25v0c-1.2 0.233-1.8 0.933-1.8 2.1v0c0 0.167 0.033 0.483 0.1 0.95v0c0.4 1.8 0.733 3.373 1 4.72 0.267 1.353 0.483 2.48 0.65 3.38v0l0.9 4.4c0.333 1.6 0.5 2.833 0.5 3.7v0c0 0.633-0.15 1.11-0.45 1.43-0.3 0.313-0.883 0.47-1.75 0.47v0c-0.733 0-1.283-0.183-1.65-0.55-0.367-0.367-0.633-0.95-0.8-1.75v0c-0.3-1.533-0.817-3.833-1.55-6.9v0l-1.6-8.3c-0.067-1.933-1.017-2.9-2.85-2.9v0c-0.6 0-1.017-0.1-1.25-0.3v0c-0.2-0.167-0.383-0.36-0.55-0.58-0.167-0.213-0.25-0.42-0.25-0.62v0c0-0.167 0.107-0.36 0.32-0.58 0.22-0.213 0.43-0.337 0.63-0.37v0c1.2-0.167 2.01-0.5 2.43-1 0.413-0.5 0.637-1.283 0.67-2.35v0l0.1-3.2c0.033-1.4 0.083-2.833 0.15-4.3 0.067-1.467 0.183-2.767 0.35-3.9v0c0.133-0.967 0.55-1.677 1.25-2.13 0.7-0.447 1.667-0.67 2.9-0.67v0c0.533 0 0.95 0.017 1.25 0.05v0c0.7 0.067 1.5 0.39 2.4 0.97 0.9 0.587 1.383 1.213 1.45 1.88v0c0.333 1.9-0.367 2.933-2.1 3.1v0c-1.133-0.233-1.8-0.1-2 0.4-0.2 0.5-0.333 1.117-0.4 1.85v0c0 0.433-0.033 1.05-0.1 1.85v0c-0.1 0.8-0.15 1.617-0.15 2.45zM205.43 47.7c-1.033 0.633-2.217 0.95-3.55 0.95v0c-1.467 0-2.877-0.377-4.23-1.13-1.347-0.747-2.42-1.82-3.22-3.22-0.8-1.4-1.133-3-1-4.8v0l0.25-1.2c0.2-1.2 0.367-2.083 0.5-2.65v0c0.3-1.233 0.9-2.1 1.8-2.6 0.9-0.5 2.1-0.9 3.6-1.2v0c0.967-0.2 1.917-0.3 2.85-0.3v0c2.933 0 5.4 0.983 7.4 2.95v0c1.067 1.067 1.6 2.367 1.6 3.9v0c0 1.5-0.55 3.117-1.65 4.85v0c-1.267 1.967-2.717 3.45-4.35 4.45zM201.23 34.1c-0.533 1.3-1.1 2.917-1.7 4.85v0l-0.5 1.5 0.35 0.15c0 0.233 0.007 0.59 0.02 1.07 0.02 0.487 0.08 0.897 0.18 1.23v0c0.367 1.033 0.783 1.667 1.25 1.9v0c0.2 0.1 0.493 0.05 0.88-0.15 0.38-0.2 0.72-0.433 1.02-0.7v0c0.467-0.4 1.217-1.233 2.25-2.5v0c0.767-0.867 1.15-1.9 1.15-3.1v0c0-1.033-0.29-1.967-0.87-2.8-0.587-0.833-1.397-1.4-2.43-1.7v0c-0.1-0.033-0.283-0.05-0.55-0.05v0c-0.633 0-0.983 0.1-1.05 0.3zM221.08 48.75c0.667-0.8 1.15-1.433 1.45-1.9v0c0.367-0.5 0.75-0.75 1.15-0.75v0c0.4 0 0.7 0.25 0.9 0.75v0c0.467 1.333 0.7 2.383 0.7 3.15v0c0 0.333-0.017 0.583-0.05 0.75v0c-0.133 0.667-0.507 1.133-1.12 1.4-0.62 0.267-1.347 0.367-2.18 0.3v0c-0.3 0-0.81 0-1.53 0-0.713 0-1.327-0.1-1.84-0.3-0.52-0.2-0.98-0.533-1.38-1v0c-0.867-1.033-1.3-2.033-1.3-3v0c0-7.8-0.033-13.667-0.1-17.6v0l-0.05-8.8c0-1.167-0.117-2.233-0.35-3.2v0c-0.033-0.167-0.05-0.367-0.05-0.6v0c0-1.233 0.833-1.85 2.5-1.85v0c1.1 0 2.027 0.357 2.78 1.07 0.747 0.72 1.087 1.663 1.02 2.83v0c-0.1 1.767-0.233 4.417-0.4 7.95v0l-0.3 6c-0.267 5.667-0.45 9.917-0.55 12.75v0c-0.033 0.333-0.017 0.7 0.05 1.1 0.067 0.4 0.117 0.65 0.15 0.75v0zM233.53 27.75c-0.067 0.2-0.307 0.417-0.72 0.65-0.42 0.233-0.763 0.45-1.03 0.65v0l-1.4-0.75c-1.367-0.733-2.3-1.317-2.8-1.75v0c-0.267-0.2-0.4-0.45-0.4-0.75v0c0-0.2 0.073-0.377 0.22-0.53 0.153-0.147 0.38-0.22 0.68-0.22v0c1.3 0 2.883 0.333 4.75 1v0c0.2 0.033 0.383 0.257 0.55 0.67 0.167 0.42 0.217 0.763 0.15 1.03zM229.03 37.05c0.1-0.433 0.167-0.75 0.2-0.95 0.033-0.2 0.05-0.417 0.05-0.65v0c0-0.467 0.143-0.833 0.43-1.1 0.28-0.267 0.82-0.4 1.62-0.4v0c0.933 0 1.76 0.29 2.48 0.87 0.713 0.587 1.153 1.347 1.32 2.28v0c0.1 0.467 0.167 0.983 0.2 1.55 0.033 0.567 0.05 0.933 0.05 1.1v0l0.7 8.55c0.1 0.9-0.023 1.59-0.37 2.07-0.353 0.487-1.013 0.73-1.98 0.73v0c-0.833 0-1.54-0.233-2.12-0.7-0.587-0.467-0.947-1.067-1.08-1.8v0l-1.3-10.6zM251.28 47.7c-1.033 0.633-2.217 0.95-3.55 0.95v0c-1.467 0-2.873-0.377-4.22-1.13-1.353-0.747-2.43-1.82-3.23-3.22-0.8-1.4-1.133-3-1-4.8v0l0.25-1.2c0.2-1.2 0.367-2.083 0.5-2.65v0c0.3-1.233 0.9-2.1 1.8-2.6 0.9-0.5 2.1-0.9 3.6-1.2v0c0.967-0.2 1.917-0.3 2.85-0.3v0c2.933 0 5.4 0.983 7.4 2.95v0c1.067 1.067 1.6 2.367 1.6 3.9v0c0 1.5-0.55 3.117-1.65 4.85v0c-1.267 1.967-2.717 3.45-4.35 4.45zM247.08 34.1c-0.533 1.3-1.1 2.917-1.7 4.85v0l-0.5 1.5 0.35 0.15c0 0.233 0.01 0.59 0.03 1.07 0.013 0.487 0.07 0.897 0.17 1.23v0c0.367 1.033 0.783 1.667 1.25 1.9v0c0.2 0.1 0.493 0.05 0.88-0.15 0.38-0.2 0.72-0.433 1.02-0.7v0c0.467-0.4 1.217-1.233 2.25-2.5v0c0.767-0.867 1.15-1.9 1.15-3.1v0c0-1.033-0.29-1.967-0.87-2.8-0.587-0.833-1.397-1.4-2.43-1.7v0c-0.1-0.033-0.283-0.05-0.55-0.05v0c-0.633 0-0.983 0.1-1.05 0.3z" fill="#f5e5b1" fill-rule="nonzero" stroke="none" stroke-width="1" stroke-linecap="butt" stroke-linejoin="miter" stroke-miterlimit="10" stroke-dasharray="" stroke-dashoffset="0" font-family="none" font-weight="none" font-size="none" text-anchor="none" style="mix-blend-mode: normal" data-fill-palette-color="primary" opacity="1"></path></g></svg></g></svg></g></svg></g></svg></g></svg></g></svg></g></svg></g><defs></defs></svg><rect width="320" height="360" fill="none" stroke="none" visibility="hidden"></rect></g></svg></g></svg>